<?xml version="1.0" standalone="no"?>
<!DOCTYPE svg PUBLIC "-//W3C//DTD SVG 20010904//EN"
 "http://www.w3.org/TR/2001/REC-SVG-20010904/DTD/svg10.dtd">
<svg version="1.0" xmlns="http://www.w3.org/2000/svg"
 width="2312.000000pt" height="781.000000pt" viewBox="0 0 2312.000000 781.000000"
 preserveAspectRatio="xMidYMid meet">

<g transform="translate(0.000000,781.000000) scale(0.100000,-0.100000)"
fill="#000000" stroke="none">
<path d="M2975 7804 c-510 -53 -966 -228 -1397 -535 -205 -146 -391 -323 -647
-614 -191 -218 -365 -492 -494 -780 -204 -455 -339 -932 -404 -1430 -15 -116
-18 -210 -18 -555 0 -441 9 -547 66 -855 156 -844 585 -1666 1153 -2212 594
-571 1294 -847 2081 -820 729 26 1373 315 1926 867 619 618 1031 1481 1154
2420 40 309 40 900 0 1215 -135 1060 -674 2074 -1422 2676 -417 335 -851 530
-1348 605 -96 15 -559 27 -650 18z m655 -49 c476 -73 914 -270 1315 -591 140
-112 385 -357 501 -499 518 -638 839 -1420 930 -2265 21 -190 24 -771 5 -955
-104 -1027 -521 -1936 -1185 -2582 -306 -299 -612 -501 -976 -646 -501 -200
-1125 -242 -1654 -112 -370 91 -760 285 -1076 535 -135 106 -431 404 -544 545
-95 120 -266 373 -338 500 -281 495 -460 1034 -540 1625 -20 148 -23 207 -23
575 0 430 4 486 51 770 113 681 417 1433 743 1840 99 123 294 338 415 458 248
246 571 464 886 601 278 120 515 182 840 220 87 10 550 -3 650 -19z"/>
<path d="M2850 7615 c-443 -62 -868 -252 -1255 -562 -289 -231 -603 -581 -786
-875 -425 -683 -665 -1634 -620 -2452 37 -670 194 -1276 474 -1830 352 -696
990 -1300 1649 -1560 372 -147 795 -196 1233 -145 912 107 1749 770 2255 1787
220 442 356 902 422 1422 21 169 18 856 -5 1040 -77 616 -272 1196 -574 1702
-282 473 -760 938 -1228 1195 -262 144 -553 241 -838 278 -148 19 -588 19
-727 0z m690 -25 c447 -55 888 -250 1285 -567 213 -169 507 -481 665 -703 289
-407 528 -982 639 -1535 66 -325 76 -439 76 -880 0 -330 -3 -425 -18 -540
-101 -774 -402 -1501 -864 -2080 -108 -136 -376 -406 -503 -506 -394 -312
-795 -489 -1255 -555 -168 -24 -545 -24 -710 0 -355 52 -696 185 -1013 396
-192 127 -361 270 -552 466 -281 289 -448 519 -608 840 -304 608 -465 1302
-465 1999 0 376 36 668 128 1040 140 566 397 1116 689 1475 346 426 706 727
1101 920 241 119 472 191 715 224 127 17 568 21 690 6z"/>
<path d="M3235 7445 c-43 -24 -65 -45 -86 -87 -23 -46 -26 -146 -4 -188 51
-98 226 -131 322 -61 51 37 73 84 73 157 0 74 -29 135 -77 166 -49 29 -183 37
-228 13z m172 -30 c31 -21 62 -89 63 -136 0 -79 -47 -160 -104 -179 -30 -10
-42 -8 -81 9 -84 37 -108 147 -55 251 38 75 111 98 177 55z"/>
<path d="M2943 7443 c-28 -5 -27 2 -6 -205 l18 -168 27 0 c15 0 30 4 33 10 3
5 -1 76 -10 157 -20 184 -24 213 -33 212 -4 -1 -17 -4 -29 -6z"/>
<path d="M3726 7402 c-2 -4 -27 -83 -56 -176 -41 -135 -49 -171 -38 -177 29
-20 42 -2 76 114 20 64 39 114 44 109 4 -4 35 -70 69 -147 67 -154 75 -167 97
-163 17 3 126 338 114 350 -4 3 -16 8 -26 10 -17 3 -24 -13 -55 -114 -19 -65
-38 -114 -42 -110 -4 4 -36 72 -72 151 -45 103 -70 147 -85 152 -12 5 -23 5
-26 1z"/>
<path d="M2622 7381 c-61 -21 -87 -42 -113 -93 -44 -86 -8 -212 73 -258 62
-35 137 -33 209 6 37 20 55 36 57 52 5 32 -15 27 -59 -13 -48 -43 -98 -47
-149 -12 -70 47 -102 178 -61 245 31 48 80 68 129 54 55 -17 62 -15 62 13 0
23 -3 25 -47 25 -27 -1 -72 -9 -101 -19z"/>
<path d="M2165 7214 c-11 -4 6 -398 17 -410 4 -3 16 -1 27 6 23 12 25 30 12
117 l-7 51 47 23 47 22 60 -52 60 -52 31 16 c17 8 31 19 30 23 -1 9 -285 251
-301 256 -7 3 -17 3 -23 0z m115 -165 c0 -7 -46 -29 -60 -29 -6 0 -10 20 -10
45 l0 46 35 -28 c19 -15 35 -31 35 -34z"/>
<path d="M4156 7047 l-158 -121 30 -15 c30 -14 31 -13 89 37 l58 51 40 -24
c36 -21 40 -28 40 -62 0 -21 -3 -57 -7 -80 -6 -40 -4 -43 28 -62 19 -11 34
-17 34 -13 1 4 11 95 24 202 13 107 22 198 19 203 -11 19 -50 -3 -197 -116z
m119 -33 c-3 -19 -8 -34 -10 -34 -3 0 -18 8 -35 19 l-31 18 38 31 c42 34 50
27 38 -34z"/>
<path d="M1868 7036 c-10 -7 -18 -16 -18 -20 0 -4 32 -48 70 -100 39 -51 70
-95 70 -98 0 -3 -75 10 -166 29 -232 48 -231 49 -88 -141 60 -80 114 -146 120
-146 6 0 17 7 24 15 10 12 -1 32 -64 117 -42 56 -75 102 -73 104 1 1 74 -14
162 -33 148 -32 205 -36 205 -14 0 8 -187 260 -214 288 -8 9 -15 9 -28 -1z"/>
<path d="M4492 6854 c-59 -75 -109 -141 -111 -146 -2 -6 6 -18 17 -27 11 -9
47 -37 80 -63 49 -39 62 -45 71 -34 10 11 1 22 -43 53 -31 21 -56 42 -56 47 0
5 42 61 93 125 51 64 97 122 101 129 8 13 -19 52 -36 52 -4 0 -56 -61 -116
-136z"/>
<path d="M3033 6930 c-355 -37 -679 -171 -1003 -412 -182 -136 -465 -447 -614
-675 -225 -344 -418 -903 -493 -1433 -26 -180 -26 -820 0 -995 64 -435 170
-781 348 -1136 348 -695 874 -1163 1477 -1313 180 -45 237 -51 472 -51 242 0
334 13 533 70 435 126 853 446 1172 895 186 263 324 541 435 880 105 317 153
581 172 947 35 661 -75 1245 -338 1791 -380 790 -968 1296 -1643 1413 -132 22
-395 32 -518 19z m367 -21 c374 -34 728 -187 1040 -447 565 -472 968 -1280
1059 -2123 31 -279 22 -707 -18 -984 -104 -704 -419 -1361 -871 -1815 -404
-405 -870 -609 -1392 -610 -677 -1 -1268 343 -1721 1000 -294 428 -502 1010
-562 1575 -17 164 -20 620 -5 776 53 531 237 1112 482 1518 105 172 384 496
545 630 441 369 921 529 1443 480z"/>
<path d="M3023 6676 c-70 -17 -213 -87 -288 -141 -211 -150 -271 -371 -174
-640 17 -46 51 -116 76 -156 58 -94 59 -129 10 -234 l-36 -75 77 -24 c42 -13
101 -27 130 -31 57 -8 64 -17 29 -40 -28 -18 -131 -189 -183 -301 -33 -73
-146 -395 -140 -401 2 -2 28 6 59 16 162 56 415 87 632 78 176 -8 409 -46 620
-103 11 -3 -50 32 -137 78 -86 46 -166 90 -178 98 -28 20 -68 164 -77 275 -6
82 4 134 44 243 l16 44 116 -7 c106 -7 118 -6 140 12 20 17 24 29 26 89 1 38
10 91 19 117 10 27 16 65 14 85 l-3 37 52 5 c28 3 55 9 59 13 10 10 -23 81
-75 161 -33 51 -45 80 -46 110 -1 28 -15 63 -43 112 -23 39 -42 74 -42 78 0 3
41 6 91 6 l90 0 -63 78 c-117 143 -196 216 -278 255 -232 109 -428 61 -521
-129 l-32 -65 6 -122 c4 -67 13 -153 21 -191 l13 -68 -66 -43 -66 -44 -17 37
c-35 76 -51 177 -45 300 7 173 46 269 141 347 62 50 161 85 264 92 81 6 83 7
52 19 -40 17 -171 44 -207 43 -15 0 -51 -6 -80 -13z m705 -581 c32 -57 42 -85
42 -119 0 -26 6 -48 15 -56 8 -7 15 -17 15 -22 0 -5 21 -38 46 -74 57 -80 55
-97 -11 -104 l-50 -5 -3 -45 c-4 -52 -16 -70 -46 -70 -20 0 -20 -1 4 -19 20
-16 22 -23 13 -43 -6 -13 -8 -46 -6 -74 5 -45 3 -53 -18 -68 -30 -20 -106 -21
-183 -1 -33 9 -60 14 -62 12 -2 -1 -18 -45 -36 -97 -30 -87 -32 -105 -33 -220
0 -89 5 -143 18 -189 9 -35 16 -65 14 -67 -7 -7 -195 117 -275 181 -46 37
-131 113 -189 169 l-106 102 18 34 c24 47 30 50 105 50 133 0 240 31 367 106
l42 25 -35 55 c-67 105 -101 205 -120 352 -6 50 -4 56 22 84 86 90 267 175
379 177 27 0 34 -7 73 -74z"/>
<path d="M3573 6013 c-80 -58 -69 -71 23 -27 39 19 62 24 85 19 39 -9 33 -25
-19 -50 -22 -10 -43 -28 -46 -39 -7 -28 1 -32 24 -11 18 16 20 16 26 1 3 -9
15 -16 26 -16 16 0 19 5 16 25 -3 14 1 30 9 37 8 6 12 17 9 24 -2 6 5 14 16
17 20 6 20 8 6 29 -12 19 -26 24 -69 26 -49 2 -59 -1 -106 -35z"/>
<path d="M4186 6196 c-42 -51 -76 -95 -76 -98 0 -12 92 -78 101 -72 6 4 -2 17
-22 34 l-33 27 27 37 c16 20 31 36 34 36 4 0 17 -10 30 -22 15 -14 27 -18 33
-12 7 7 0 18 -20 32 l-30 23 27 34 28 34 27 -26 c20 -19 31 -24 39 -16 7 7 -4
21 -35 46 -24 21 -46 37 -49 37 -2 0 -39 -42 -81 -94z"/>
<path d="M2017 6164 c-8 -8 110 -244 122 -244 22 0 21 24 -4 66 l-27 46 21 21
21 21 49 -21 c47 -20 51 -20 66 -3 15 16 8 20 -109 69 -137 56 -130 54 -139
45z m102 -90 c-16 -20 -24 -18 -37 10 -11 24 -10 24 19 14 24 -8 27 -13 18
-24z"/>
<path d="M4456 6141 c-4 -6 3 -20 16 -31 l23 -19 -83 -84 c-74 -74 -81 -85
-67 -97 14 -12 27 -3 100 70 l83 82 17 -26 c13 -19 21 -24 29 -16 7 7 -7 28
-51 71 -38 39 -63 57 -67 50z"/>
<path d="M1865 6009 c-8 -12 16 -40 108 -122 59 -52 70 -58 82 -46 13 13 3 25
-74 97 -90 82 -104 91 -116 71z"/>
<path d="M1735 5858 c-56 -73 -59 -78 -47 -90 7 -7 16 0 27 21 l16 31 82 -63
c103 -80 102 -80 116 -63 11 13 -30 50 -168 153 -3 2 5 14 17 26 20 21 21 37
2 37 -3 0 -24 -23 -45 -52z"/>
<path d="M4642 5759 l-102 -70 32 -47 c17 -26 32 -49 34 -51 1 -1 8 0 14 4 8
5 6 14 -8 29 -36 40 -35 43 45 97 100 67 113 78 106 95 -3 8 -8 14 -12 14 -3
0 -52 -32 -109 -71z"/>
<path d="M1597 5666 c-4 -10 17 -29 66 -59 l71 -45 -44 -6 c-25 -3 -74 -9
-109 -13 -36 -4 -66 -13 -68 -19 -4 -11 185 -134 206 -134 32 0 12 24 -56 67
l-78 48 114 10 c67 6 116 15 118 21 3 9 -196 144 -212 144 -1 0 -5 -6 -8 -14z"/>
<path d="M4780 5553 c-63 -14 -116 -26 -118 -28 -1 -1 0 -9 4 -18 5 -14 11
-14 57 0 50 15 51 14 68 -9 19 -25 21 -21 -28 -85 -18 -24 -19 -31 -8 -47 12
-16 20 -9 92 84 43 56 79 108 81 116 4 18 -10 17 -148 -13z m74 -25 c-19 -33
-27 -38 -40 -27 -26 21 -19 28 39 38 5 0 5 -5 1 -11z"/>
<path d="M1415 5330 c-14 -27 -25 -52 -25 -55 0 -6 221 -118 225 -113 13 15
53 107 48 112 -12 12 -19 6 -32 -29 -14 -41 -21 -42 -72 -13 -38 21 -38 21
-23 51 10 19 12 33 6 39 -6 6 -14 -3 -22 -26 l-11 -36 -40 20 c-43 23 -46 28
-24 56 17 22 19 44 5 44 -5 0 -21 -22 -35 -50z"/>
<path d="M4915 5329 c-60 -27 -111 -51 -113 -53 -8 -9 44 -96 65 -107 32 -17
74 -2 91 34 11 22 18 26 38 21 37 -9 74 14 74 45 0 23 -34 112 -42 110 -2 0
-52 -23 -113 -50z m123 -31 c-2 -28 -8 -34 -31 -36 -28 -3 -57 12 -57 29 0 10
56 37 78 38 9 1 12 -9 10 -31z m-98 -43 c0 -25 -33 -55 -62 -55 -9 0 -24 10
-33 23 -15 21 -15 23 32 43 54 24 63 23 63 -11z"/>
<path d="M1326 5144 c-4 -9 -5 -18 -3 -20 2 -2 52 -26 112 -53 94 -43 111 -48
118 -35 5 9 5 19 1 24 -7 6 -144 69 -210 96 -6 3 -14 -3 -18 -12z"/>
<path d="M5001 5093 c-87 -43 -94 -168 -12 -216 82 -48 211 18 211 108 0 98
-104 155 -199 108z m133 -37 c79 -33 45 -119 -57 -147 -65 -17 -127 14 -127
65 0 25 43 66 85 81 51 18 58 18 99 1z"/>
<path d="M1250 4970 c-42 -82 -14 -152 76 -186 60 -23 116 -8 145 39 21 35 22
98 1 105 -9 3 -11 -3 -7 -21 10 -37 -3 -65 -36 -82 -62 -33 -179 31 -179 97 0
7 12 24 26 39 14 15 23 32 20 38 -13 20 -25 12 -46 -29z"/>
<path d="M5122 4755 c-57 -13 -105 -25 -108 -28 -10 -10 10 -37 25 -33 9 2 32
8 51 11 l35 7 -42 -44 c-31 -31 -43 -52 -43 -73 l0 -29 53 52 c53 52 53 53 72
32 22 -25 77 -27 100 -3 13 13 15 26 10 61 -12 84 -2 81 -153 47z m134 -29
c19 -49 -60 -77 -91 -33 -15 22 -14 22 27 34 58 15 58 15 64 -1z"/>
<path d="M1181 4707 c-15 -15 -14 -79 2 -100 6 -9 26 -19 43 -23 27 -5 38 0
72 30 43 39 72 45 98 19 15 -16 15 -18 -11 -41 -20 -16 -25 -26 -17 -34 27
-27 69 32 57 79 -8 32 -63 65 -95 57 -14 -3 -39 -21 -56 -40 -35 -38 -37 -38
-65 -24 -23 13 -25 38 -4 46 8 4 15 12 15 19 0 18 -25 26 -39 12z"/>
<path d="M3095 4193 c-23 -155 -13 -144 -130 -156 l-60 -7 -49 105 c-68 145
-66 144 -169 111 l-84 -26 23 -136 c14 -76 23 -138 21 -140 -2 -2 -36 -19 -77
-37 l-74 -34 -91 94 c-50 51 -98 93 -107 93 -8 0 -45 -23 -81 -50 -77 -59 -78
-46 6 -190 l55 -95 -61 -62 -61 -62 -186 95 c-190 97 -300 171 -300 202 0 28
249 262 350 328 42 28 52 53 23 55 -81 5 -178 -48 -395 -218 l-107 -84 -40 27
c-26 17 -45 23 -54 17 -18 -9 -77 -82 -77 -94 0 -4 19 -23 42 -43 49 -40 53
-19 -32 -205 -61 -134 -90 -240 -90 -328 0 -54 3 -63 18 -63 14 0 23 15 36 58
23 71 101 229 168 336 27 45 51 82 53 84 5 6 146 -82 185 -116 22 -18 42 -43
45 -55 3 -12 50 -63 103 -114 l97 -91 -35 -71 c-39 -82 -27 -79 -190 -51 -63
11 -118 20 -122 20 -7 0 -58 -147 -58 -167 0 -7 55 -40 123 -73 67 -34 123
-63 125 -64 3 -4 -24 -145 -29 -150 -2 -3 -65 -13 -139 -23 l-135 -18 -3 -86
-3 -87 41 -16 c22 -9 84 -21 138 -28 53 -6 100 -14 104 -17 3 -3 10 -39 15
-78 l9 -73 -110 -53 c-61 -30 -117 -61 -125 -70 -11 -14 -10 -27 10 -87 12
-38 26 -74 29 -80 6 -10 154 10 265 35 17 3 26 -8 54 -72 l35 -76 -92 -88
c-51 -49 -92 -94 -92 -101 1 -7 23 -43 51 -81 l50 -67 119 61 120 61 38 -30
c20 -17 47 -41 60 -55 l24 -25 -61 -118 c-69 -137 -70 -130 34 -193 l56 -34
99 98 98 98 69 -38 c37 -20 71 -40 75 -43 4 -4 -4 -65 -17 -137 -14 -71 -21
-132 -17 -136 7 -5 162 -49 176 -49 3 0 33 54 66 120 l60 120 43 -6 c23 -4 60
-10 82 -13 l40 -6 22 -130 c12 -72 22 -131 22 -133 1 -1 45 -1 99 0 l97 3 20
129 c23 147 14 137 132 151 l60 7 53 -117 c30 -64 57 -118 60 -120 7 -4 170
42 178 50 3 3 -5 64 -17 136 -13 71 -22 132 -20 133 12 11 131 66 141 66 8 0
56 -42 107 -94 l94 -95 73 50 c40 27 75 53 78 57 6 10 -10 42 -79 160 l-48 83
54 55 c29 29 62 54 72 54 10 0 70 -27 134 -61 l116 -60 38 53 c73 102 75 86
-34 196 l-96 97 37 68 c41 76 32 74 172 52 154 -24 144 -27 174 63 14 42 26
81 26 85 0 4 -57 35 -126 67 l-125 60 6 42 c4 24 10 59 14 78 l7 35 109 13
c61 8 125 20 143 27 l32 14 0 89 0 88 -142 20 -142 19 -7 35 c-4 19 -10 56
-14 83 -6 45 -5 47 22 57 74 27 174 75 199 95 l27 21 -27 82 c-15 45 -31 82
-34 82 -4 0 -68 -11 -143 -23 l-136 -23 -37 73 -36 73 144 140 c79 77 161 154
182 171 41 33 106 69 124 69 5 0 64 -108 130 -240 66 -132 125 -240 130 -240
17 0 11 133 -10 216 -11 43 -47 135 -80 203 -33 68 -60 128 -60 135 0 6 19 27
42 48 l43 36 -39 56 -38 55 -54 -30 c-47 -27 -57 -29 -72 -18 -9 8 -62 52
-117 98 -169 143 -307 218 -361 197 -15 -6 -15 -9 2 -28 11 -11 80 -71 154
-133 162 -135 220 -195 220 -230 0 -37 -55 -73 -288 -187 l-202 -99 -28 20
c-15 10 -44 37 -64 58 l-37 38 64 115 65 115 -33 28 c-69 59 -106 80 -132 73
-14 -4 -57 -43 -102 -95 l-77 -88 -75 35 c-42 20 -77 36 -79 38 -3 2 35 226
44 256 4 14 -11 22 -81 44 -105 33 -103 34 -176 -110 -29 -55 -53 -103 -55
-104 -6 -8 -156 22 -160 32 -2 6 -10 58 -19 115 -21 147 -25 151 -133 151
l-88 0 -19 -137z m-1575 -253 c0 -8 -7 -25 -15 -37 -15 -22 -17 -22 -50 -6
-40 19 -41 24 -18 63 16 28 17 28 50 12 18 -9 33 -23 33 -32z m3500 -1 c0 -10
-13 -27 -29 -38 l-28 -20 -20 22 c-36 40 -35 45 4 66 35 17 40 18 56 4 9 -9
17 -24 17 -34z m-2882 -434 l489 -349 -20 -28 c-12 -15 -23 -28 -26 -28 -6 0
-965 691 -978 704 -10 10 19 57 33 54 7 -2 233 -160 502 -353z m2696 331 l16
-25 -158 -114 c-519 -376 -785 -567 -792 -567 -4 0 -15 11 -24 25 -16 25 -16
25 66 85 544 396 855 619 864 619 7 1 19 -10 28 -23z m-1334 -79 c200 -52 389
-157 521 -289 38 -38 69 -72 69 -77 0 -4 -58 -49 -130 -100 -71 -51 -130 -97
-130 -102 0 -16 62 -94 72 -91 6 2 67 44 135 93 69 50 131 88 138 85 19 -7
132 -242 149 -311 27 -106 48 -305 42 -385 -7 -100 -59 -308 -96 -385 -56
-117 -227 -351 -251 -343 -4 2 -87 100 -184 218 -97 118 -182 216 -189 218 -7
1 -21 -6 -31 -18 -28 -31 -35 -25 -35 34 l0 53 46 7 c26 3 155 7 288 7 133 1
268 4 302 8 l61 6 -146 177 -146 177 -212 0 -213 1 0 43 c0 49 -32 892 -34
892 0 0 -138 -1 -305 -3 l-303 -4 6 -171 c3 -95 7 -307 8 -472 l3 -300 -210
-6 c-115 -3 -211 -6 -212 -7 -1 -1 -55 -71 -119 -154 -65 -84 -130 -170 -146
-190 l-29 -37 366 6 365 6 0 -56 c0 -32 -3 -57 -7 -57 -5 0 -19 9 -33 20 -14
11 -30 20 -36 20 -5 0 -88 -103 -184 -230 -95 -126 -176 -230 -180 -230 -8 0
-85 81 -153 162 -146 172 -237 451 -237 723 0 166 30 283 120 473 36 74 53
101 62 96 14 -9 255 -181 274 -196 8 -6 24 8 49 43 20 28 34 53 32 55 -2 3
-71 52 -152 109 l-148 105 74 72 c185 182 363 277 608 323 118 22 340 14 461
-18z m-8 -552 c9 -225 17 -438 17 -472 l1 -63 -125 0 -125 0 0 -129 0 -129
-342 -7 c-189 -3 -391 -5 -450 -3 l-108 3 94 121 94 121 234 6 c128 4 278 7
333 7 55 0 111 3 124 7 l24 6 -7 177 -8 177 63 6 c34 4 82 7 107 7 l45 0 -6
173 c-4 94 -7 211 -7 260 l0 87 -105 0 -105 0 0 30 0 31 118 -3 117 -3 17
-410z m-262 326 c0 -15 3 -48 6 -73 6 -44 5 -46 -24 -56 -48 -17 -72 -47 -72
-91 0 -43 35 -87 77 -97 22 -6 23 -10 23 -90 l0 -84 -105 0 -105 0 0 133 c0
74 -3 188 -7 255 l-6 121 59 4 c159 9 154 10 154 -22z m90 -178 c11 -14 20
-37 20 -50 0 -30 -51 -83 -79 -83 -20 0 -21 6 -21 89 l0 90 30 -11 c17 -5 39
-21 50 -35z m-130 -483 l0 -80 -75 0 -75 0 0 80 0 80 75 0 75 0 0 -80z m330
-585 l0 -65 -125 0 -125 0 0 65 0 65 125 0 125 0 0 -65z m42 -144 c31 -30 317
-408 315 -416 -5 -15 -153 -91 -242 -123 -137 -50 -122 -53 -129 30 -3 40 -8
176 -11 301 l-6 229 33 -7 c18 -4 36 -10 40 -14z m-252 -111 l0 -120 -40 0
-40 0 0 120 0 120 40 0 40 0 0 -120z m-262 -189 l2 -293 -37 7 c-125 23 -360
124 -346 149 7 12 213 299 275 384 35 47 43 53 71 50 l32 -3 3 -294z m818 109
c60 -72 110 -134 112 -138 1 -4 -10 -17 -26 -29 l-29 -21 -112 140 c-109 135
-112 140 -95 159 9 10 23 19 29 19 7 0 61 -59 121 -130z m-1047 100 l23 -20
-112 -150 c-62 -82 -115 -150 -119 -150 -3 0 -17 9 -30 19 -17 13 -21 22 -15
33 28 48 211 288 219 287 6 0 21 -9 34 -19z m634 -252 c4 -62 7 -145 7 -184
l0 -72 -35 -4 c-20 -2 -38 -2 -40 1 -3 2 -5 87 -5 188 l0 183 33 0 34 0 6
-112z m-280 -80 c3 -100 4 -184 2 -186 -1 -2 -19 0 -39 3 l-36 7 0 179 0 179
33 0 34 0 6 -182z m165 -152 c5 -26 -15 -36 -70 -36 -47 0 -48 1 -48 30 l0 31
57 -3 c47 -2 58 -6 61 -22z"/>
<path d="M3310 2945 c-18 -21 -5 -45 25 -45 14 0 28 7 31 15 7 17 -12 45 -31
45 -7 0 -18 -7 -25 -15z"/>
<path d="M3391 2946 c-17 -20 -2 -46 25 -46 29 0 41 24 24 45 -16 19 -34 19
-49 1z"/>
<path d="M3317 2853 c-11 -10 -8 -51 3 -58 20 -12 50 6 50 30 0 27 -35 46 -53
28z"/>
<path d="M3395 2840 c-8 -27 1 -40 30 -40 27 0 41 26 24 46 -17 20 -47 17 -54
-6z"/>
<path d="M4885 6489 c-71 -60 -131 -113 -133 -117 -4 -11 111 -145 142 -165
36 -24 126 -22 175 2 78 40 122 118 107 188 -7 28 -140 204 -154 202 -4 0 -65
-50 -137 -110z m235 -68 c17 -62 -17 -113 -105 -160 -46 -24 -85 -27 -123 -7
-29 15 -68 54 -74 72 -2 6 49 55 112 108 l115 96 32 -34 c17 -19 37 -53 43
-75z"/>
<path d="M1240 6393 c-29 -11 -140 -132 -173 -190 -5 -7 47 -54 134 -123 77
-62 141 -110 143 -108 1 1 20 26 43 53 75 92 93 125 93 169 -1 122 -138 236
-240 199z m87 -79 c57 -33 103 -96 103 -141 0 -35 -28 -101 -52 -121 -12 -9
-38 7 -129 79 -63 50 -117 93 -121 97 -12 12 52 83 86 98 45 19 64 17 113 -12z"/>
<path d="M5143 6143 l-142 -95 56 -84 c31 -46 60 -84 64 -84 22 0 16 25 -15
66 -20 26 -36 51 -36 55 0 5 27 26 59 48 l59 41 28 -48 c15 -26 28 -48 29 -50
1 -1 10 0 19 4 14 5 11 14 -20 56 -20 27 -35 50 -33 52 2 1 26 18 53 36 53 36
47 38 92 -37 17 -28 30 -40 40 -36 8 3 14 9 12 13 -11 27 -105 160 -113 159
-5 0 -74 -43 -152 -96z"/>
<path d="M891 5937 c-9 -12 10 -42 100 -158 144 -187 133 -175 151 -146 15 22
14 25 -35 81 l-50 58 24 45 24 44 45 -6 c25 -3 59 -8 77 -11 28 -5 33 -2 48
26 9 18 15 33 13 35 -2 1 -77 10 -168 19 -91 9 -177 19 -191 22 -15 3 -31 -1
-38 -9z m150 -67 c33 0 36 -10 13 -46 l-17 -25 -28 33 c-32 37 -37 53 -13 44
9 -3 29 -6 45 -6z"/>
<path d="M5395 5742 c-82 -42 -151 -82 -152 -87 -2 -6 3 -20 11 -30 14 -19 19
-18 170 57 86 43 156 83 156 89 0 15 -19 49 -28 49 -4 -1 -74 -36 -157 -78z"/>
<path d="M784 5626 c-36 -16 -63 -52 -88 -116 -10 -25 -26 -66 -37 -92 l-18
-46 166 -67 c91 -36 169 -62 173 -58 18 19 70 176 70 209 0 115 -161 218 -266
170z m122 -77 c64 -30 104 -81 104 -130 0 -22 -7 -55 -15 -74 l-14 -35 -48 19
c-172 68 -234 94 -237 100 -9 14 32 88 63 114 40 33 87 35 147 6z"/>
<path d="M5500 5563 c-85 -35 -159 -68 -164 -73 -6 -6 -6 -17 0 -29 9 -19 14
-18 127 29 64 26 117 46 117 43 0 -3 -34 -69 -75 -148 -41 -78 -75 -146 -75
-151 0 -5 4 -15 9 -23 7 -11 40 -1 175 55 91 37 166 71 166 74 0 4 -6 14 -13
24 -12 17 -16 17 -76 -8 -34 -15 -85 -36 -112 -46 l-49 -20 70 140 c107 214
104 217 -100 133z"/>
<path d="M586 5194 c-4 -15 -5 -28 -3 -30 13 -13 330 -105 336 -98 5 5 12 18
15 30 6 19 -7 24 -158 72 -90 29 -168 52 -174 52 -5 0 -13 -12 -16 -26z"/>
<path d="M5652 5149 c-54 -13 -116 -71 -130 -123 -7 -25 -8 -55 -2 -86 10 -50
52 -154 66 -162 5 -3 42 4 81 15 70 19 72 21 66 46 -9 40 -9 40 -74 20 -77
-24 -76 -24 -94 11 -36 69 -7 153 65 190 65 33 121 36 168 10 68 -39 82 -82
57 -182 -7 -25 -5 -28 19 -28 34 0 42 33 27 107 -28 143 -122 211 -249 182z"/>
<path d="M524 4994 c-22 -32 -30 -114 -14 -143 15 -29 75 -54 109 -46 14 3 47
28 72 56 55 59 94 66 128 23 12 -15 21 -31 21 -36 0 -10 -37 -47 -66 -65 -19
-12 -19 -12 0 -28 29 -22 44 -19 66 18 42 68 38 132 -12 179 -23 21 -40 28
-70 28 -36 0 -47 -6 -93 -55 -58 -59 -83 -67 -115 -35 -28 28 -25 44 13 75 31
25 31 26 13 40 -27 20 -33 19 -52 -11z"/>
<path d="M5755 4688 c-82 -17 -151 -32 -153 -33 -2 -2 18 -108 33 -172 3 -13
12 -23 20 -23 18 0 18 2 0 69 -8 30 -12 58 -10 62 6 8 135 32 141 26 3 -2 7
-27 11 -56 5 -41 9 -51 24 -51 11 0 19 1 19 3 0 1 -7 27 -15 57 -8 30 -13 55
-12 56 3 3 107 24 117 24 5 0 12 -27 16 -60 7 -63 12 -73 32 -61 9 5 8 28 -6
97 -16 82 -20 89 -42 91 -14 1 -92 -12 -175 -29z"/>
<path d="M478 4679 c-10 -5 -22 -18 -28 -29 -15 -28 -41 -173 -32 -181 7 -6
344 -71 348 -66 0 1 4 16 7 34 l6 32 -74 12 c-41 6 -75 15 -75 18 0 4 37 25
81 46 81 40 99 59 99 106 0 17 -11 14 -95 -32 -75 -40 -95 -47 -95 -34 0 72
-84 128 -142 94z m91 -85 c12 -15 21 -40 21 -55 0 -33 -15 -36 -98 -18 -44 9
-49 13 -45 32 16 65 85 88 122 41z"/>
<path d="M5825 4371 l-160 -16 -3 -28 c-3 -28 -3 -28 45 -22 105 13 203 21
203 17 0 -2 -51 -58 -112 -124 -100 -106 -121 -138 -103 -156 2 -2 82 5 179
14 159 16 176 19 176 36 0 28 -22 32 -138 20 -59 -6 -108 -10 -109 -8 -2 1 46
55 107 119 80 85 110 123 110 142 0 18 -5 25 -17 24 -10 -1 -90 -9 -178 -18z"/>
<path d="M384 4238 c-4 -51 -7 -95 -8 -98 -1 -5 279 -38 331 -39 18 -1 22 6
27 47 3 26 8 71 12 100 5 42 3 52 -9 52 -11 0 -17 -18 -22 -66 l-7 -66 -66 7
c-37 4 -71 9 -75 12 -8 5 -3 53 9 94 3 11 -3 18 -16 22 -18 5 -20 0 -20 -54
l0 -59 -34 0 c-18 0 -48 3 -66 6 -32 7 -32 7 -25 53 3 25 8 54 11 64 4 12 0
17 -15 17 -18 0 -20 -9 -27 -92z"/>
<path d="M388 4015 c-6 -28 -1 -34 62 -65 99 -50 182 -103 168 -110 -7 -4 -70
-19 -140 -35 -124 -27 -126 -28 -132 -58 -3 -17 -4 -32 -2 -34 2 -3 87 17 188
44 241 63 240 58 29 186 -88 53 -162 97 -164 97 -3 0 -7 -11 -9 -25z"/>
<path d="M5798 3913 l-108 -4 0 -29 0 -30 180 0 180 0 0 35 0 35 -72 -2 c-40
-1 -121 -4 -180 -5z"/>
<path d="M5690 3617 c0 -86 3 -104 15 -104 12 0 15 15 15 69 l0 68 76 0 77 0
-6 -60 c-6 -55 -5 -60 13 -60 17 0 19 7 17 58 l-2 57 64 3 63 3 -4 -65 c-3
-56 -1 -65 14 -69 16 -5 18 4 18 99 l0 104 -180 0 -180 0 0 -103z"/>
<path d="M360 3553 c0 -30 2 -31 58 -36 31 -4 112 -9 180 -13 l122 -7 0 30 c0
30 -2 31 -57 36 -32 4 -113 9 -180 13 l-123 7 0 -30z"/>
<path d="M5687 3383 c-7 -39 -2 -43 56 -43 104 0 106 -7 15 -65 -77 -48 -83
-55 -86 -89 -2 -20 -1 -36 2 -36 4 0 44 24 90 54 l85 55 6 -29 c16 -72 97
-103 150 -57 22 19 27 34 35 112 5 49 7 91 5 94 -5 4 -276 30 -326 31 -21 0
-28 -6 -32 -27z m301 -63 c27 0 32 -4 32 -24 0 -34 -37 -76 -66 -76 -37 0 -60
15 -74 49 -19 47 -7 65 38 57 20 -3 52 -6 70 -6z"/>
<path d="M580 3364 c-63 -7 -138 -16 -166 -19 -48 -6 -51 -7 -46 -32 5 -24 7
-25 56 -20 28 4 83 9 121 13 l70 6 -40 -43 c-22 -24 -73 -79 -114 -121 -96
-102 -94 -114 19 -110 47 2 128 8 180 15 86 11 95 14 92 32 -2 11 -6 22 -8 24
-2 2 -56 -1 -120 -8 -64 -6 -118 -10 -120 -9 -1 2 49 58 113 126 75 81 113
129 109 139 -3 8 -6 17 -6 19 0 5 7 5 -140 -12z"/>
<path d="M5646 3024 c-4 -15 -4 -29 -1 -33 6 -6 347 -62 351 -58 1 1 4 15 6
32 l3 30 -165 27 c-91 14 -170 27 -176 27 -7 1 -15 -11 -18 -25z"/>
<path d="M605 2900 c-16 -4 -64 -15 -106 -24 -72 -16 -76 -18 -71 -41 2 -14 8
-25 12 -25 4 0 57 11 118 25 142 32 164 32 203 -3 43 -39 44 -95 1 -133 -28
-25 -51 -32 -230 -70 -53 -11 -53 -11 -46 -42 3 -18 7 -33 8 -34 1 -1 59 10
129 26 174 38 213 69 203 163 -7 70 -39 134 -75 152 -32 17 -96 20 -146 6z"/>
<path d="M5627 2893 c-4 -3 -7 -17 -7 -30 0 -17 15 -32 61 -60 58 -37 60 -39
54 -73 -12 -68 -12 -68 -80 -75 -35 -4 -71 -12 -78 -19 -20 -16 -31 -66 -15
-66 7 1 96 16 198 33 144 26 186 36 188 49 2 10 -47 52 -145 123 -81 60 -153
112 -159 117 -6 4 -14 5 -17 1z m185 -180 c40 -27 40 -28 17 -34 -13 -4 -37
-7 -53 -8 -25 -1 -28 2 -22 22 3 12 6 28 6 35 0 17 5 16 52 -15z"/>
<path d="M5203 1981 c-11 -18 -3 -25 92 -81 159 -94 190 -147 125 -212 -44
-44 -83 -36 -217 45 l-108 66 -17 -22 c-10 -12 -18 -25 -18 -29 0 -4 50 -37
112 -74 86 -52 122 -68 160 -72 46 -4 50 -3 87 36 45 47 76 120 67 156 -11 43
-55 84 -157 146 -55 33 -103 60 -107 60 -4 0 -13 -9 -19 -19z"/>
<path d="M1195 1899 c-60 -33 -129 -72 -153 -85 l-43 -25 42 -77 c51 -93 56
-99 70 -85 7 7 1 25 -22 61 -17 28 -28 55 -25 60 3 6 66 43 138 83 73 39 135
74 137 76 6 5 -17 53 -26 53 -5 0 -57 -27 -118 -61z"/>
<path d="M1318 1609 c-82 -55 -148 -103 -148 -107 0 -4 7 -16 15 -26 14 -18
21 -15 164 80 l149 99 -14 27 c-8 16 -16 28 -17 27 -1 0 -68 -45 -149 -100z"/>
<path d="M4965 1606 c-11 -8 -42 -41 -68 -74 l-47 -61 72 -58 c210 -169 207
-167 229 -147 11 10 18 23 17 30 -2 7 -30 33 -62 58 l-59 46 104 0 105 0 22
30 23 30 -110 0 -111 0 10 26 c17 44 11 74 -19 105 -33 32 -74 38 -106 15z
m65 -66 c23 -23 27 -77 7 -104 -12 -16 -15 -15 -52 14 -22 18 -49 39 -60 47
-20 14 -20 14 8 39 34 29 70 31 97 4z"/>
<path d="M1417 1441 l-148 -97 18 -23 19 -23 59 44 c33 24 75 54 93 67 l32 22
-9 -23 c-5 -13 -25 -60 -45 -105 -20 -45 -36 -86 -36 -92 0 -22 23 -20 127 9
59 16 112 30 118 30 5 0 -28 -37 -73 -83 l-83 -83 27 -24 26 -25 119 125 c65
69 118 131 119 138 0 25 -33 24 -157 -7 -69 -18 -127 -30 -128 -29 -2 2 21 59
50 128 37 88 50 129 43 138 -6 6 -13 12 -17 11 -3 0 -73 -44 -154 -98z"/>
<path d="M4715 1325 l-70 -64 125 -126 c69 -69 127 -125 130 -125 3 1 36 29
74 64 53 49 67 68 62 82 -6 15 -14 11 -56 -31 l-50 -50 -51 51 -51 51 43 41
c36 34 42 43 31 54 -11 11 -20 5 -52 -32 l-39 -45 -46 45 -46 45 46 43 c39 38
50 63 27 62 -4 -1 -38 -30 -77 -65z"/>
<path d="M4479 1124 c-35 -26 -68 -50 -73 -55 -5 -5 37 -69 100 -153 l108
-144 28 19 28 20 -49 64 -49 65 44 44 c39 38 44 49 44 87 0 33 -6 51 -25 72
-39 42 -79 37 -156 -19z m104 -36 c11 -14 20 -38 20 -52 0 -26 -27 -66 -44
-66 -5 0 -27 25 -51 56 l-42 56 24 20 c31 25 68 20 93 -14z"/>
<path d="M1800 1054 c-90 -50 -166 -96 -167 -100 -2 -5 6 -15 18 -22 19 -12
28 -9 82 27 64 42 68 42 116 1 l24 -21 -21 -72 -22 -72 26 -23 c15 -13 28 -21
31 -19 6 7 103 355 103 371 0 30 -32 19 -190 -70z m110 0 c0 -16 -24 -84 -29
-84 -13 1 -53 41 -47 47 10 11 61 41 69 42 4 1 7 -2 7 -5z"/>
<path d="M2543 797 c-59 -11 -75 -37 -23 -37 17 0 30 -1 30 -2 0 -2 -20 -66
-44 -143 l-44 -140 26 -12 c15 -6 30 -8 33 -5 7 9 99 313 99 328 0 18 -20 21
-77 11z"/>
<path d="M3620 732 c-58 -29 -80 -73 -80 -158 0 -137 40 -190 137 -182 64 6
101 35 109 89 15 90 -55 147 -143 116 -42 -14 -43 -14 -43 9 0 54 46 124 82
124 10 0 18 5 18 10 0 16 -42 12 -80 -8z m75 -177 c44 -43 28 -153 -20 -144
-24 5 -65 64 -65 94 0 24 35 75 51 75 6 0 21 -11 34 -25z"/>
<path d="M2841 711 c-26 -26 -29 -92 -5 -111 13 -12 11 -16 -15 -32 -60 -39
-62 -142 -3 -172 44 -22 101 -27 138 -11 62 26 85 115 40 160 l-24 24 24 22
c29 28 32 77 5 110 -14 18 -31 23 -78 27 -52 4 -64 1 -82 -17z m101 -18 c31
-28 17 -103 -20 -103 -42 0 -58 66 -25 102 20 22 22 22 45 1z m-10 -150 c39
-35 7 -143 -42 -143 -47 0 -66 87 -29 134 24 30 45 33 71 9z"/>
<path d="M3170 684 l0 -26 80 4 c44 2 80 -1 80 -5 0 -4 -36 -73 -79 -152 l-79
-145 34 0 c20 0 34 5 34 13 0 6 36 79 80 161 44 81 80 154 80 162 0 11 -23 14
-115 14 l-115 0 0 -26z"/>
<path d="M7823 6618 c4 -827 1 -797 73 -947 134 -277 534 -409 893 -296 147
47 292 167 352 292 57 119 58 146 59 956 l0 737 -275 0 -275 0 0 -672 c0 -393
-4 -698 -10 -733 -12 -73 -35 -106 -87 -124 -34 -12 -46 -12 -84 0 -38 12 -48
21 -69 64 l-25 50 -3 708 -3 707 -275 0 -275 0 4 -742z"/>
<path d="M9480 6345 l0 -1015 263 2 262 3 0 360 c-1 280 -5 392 -19 505 -30
252 -31 248 27 85 30 -82 125 -331 212 -552 l158 -403 264 0 263 0 0 1015 0
1015 -266 0 -266 0 5 -362 c4 -266 11 -415 26 -558 12 -107 21 -204 20 -215 0
-11 -38 90 -84 225 -47 135 -142 394 -213 575 l-128 330 -262 3 -262 2 0
-1015z"/>
<path d="M11182 6348 l3 -1013 275 0 275 0 3 1013 2 1012 -280 0 -280 0 2
-1012z"/>
<path d="M11875 7348 c3 -7 106 -456 230 -998 124 -542 228 -993 231 -1002 5
-17 27 -18 280 -18 l274 0 10 23 c6 12 129 461 275 997 146 536 268 983 271
993 5 16 -14 17 -295 17 -166 0 -301 -3 -301 -7 0 -5 -34 -181 -74 -393 -76
-390 -110 -598 -122 -748 -4 -45 -10 -84 -13 -87 -4 -2 -13 57 -20 131 -17
186 -51 418 -110 765 -28 162 -53 304 -56 317 l-5 22 -290 0 c-227 0 -288 -3
-285 -12z"/>
<path d="M13590 6345 l0 -1015 508 2 507 3 3 243 2 242 -235 0 -235 0 0 155 0
155 210 0 210 0 0 245 0 245 -210 0 -210 0 0 125 0 125 235 0 235 0 0 245 0
245 -510 0 -510 0 0 -1015z"/>
<path d="M14840 6345 l0 -1015 273 2 272 3 0 408 c0 224 1 407 2 407 1 0 9
-24 18 -52 8 -29 75 -213 149 -408 l133 -355 298 -3 c236 -2 296 0 292 10 -2
7 -94 197 -203 422 -180 374 -196 411 -179 420 128 75 196 144 242 244 36 77
56 200 49 305 -19 284 -159 484 -401 570 -135 48 -233 57 -607 57 l-338 0 0
-1015z m665 574 c22 -6 56 -28 76 -48 92 -92 74 -294 -34 -375 -33 -25 -95
-46 -134 -46 l-23 0 0 240 0 240 38 0 c20 0 55 -5 77 -11z"/>
<path d="M16863 7340 c-204 -54 -346 -195 -424 -425 -20 -59 -24 -89 -24 -195
0 -144 13 -200 72 -299 50 -83 134 -167 274 -273 76 -57 122 -99 137 -126 85
-152 -83 -253 -273 -164 -51 25 -87 52 -142 108 l-73 76 2 -313 3 -313 71 -22
c125 -40 225 -56 339 -57 199 0 322 49 455 183 138 137 191 268 191 470 1 239
-85 381 -342 566 -128 92 -153 117 -170 174 -14 46 6 91 54 121 51 32 149 22
223 -22 53 -33 130 -106 166 -159 16 -24 17 -9 15 284 l-2 310 -80 32 c-161
65 -332 81 -472 44z"/>
<path d="M17682 6348 l3 -1013 275 0 275 0 3 1013 2 1012 -280 0 -280 0 2
-1012z"/>
<path d="M18512 6348 l3 -1013 250 -3 c397 -5 535 14 702 94 182 87 312 247
386 475 43 130 60 258 61 439 0 351 -87 593 -283 790 -78 78 -162 131 -268
170 -138 50 -234 60 -560 60 l-293 0 2 -1012z m657 476 c86 -43 147 -155 172
-316 18 -114 7 -377 -20 -459 -39 -124 -115 -201 -213 -219 l-38 -7 0 513 0
514 23 0 c13 0 47 -12 76 -26z"/>
<path d="M20216 6362 c-132 -548 -241 -1005 -244 -1014 -4 -17 14 -18 276 -18
175 0 283 4 287 10 5 8 45 222 45 243 0 4 83 7 184 7 l183 0 17 -107 c9 -60
19 -118 22 -130 l4 -23 279 0 c153 0 280 2 282 5 3 2 -91 456 -208 1007 -117
552 -213 1006 -213 1011 0 4 -152 7 -337 7 l-338 0 -239 -998z m600 158 c14
-124 34 -282 44 -352 11 -70 20 -131 20 -137 0 -7 -39 -11 -110 -11 -60 0
-110 4 -110 9 0 5 18 114 40 242 21 129 46 290 55 359 8 69 18 141 22 160 l7
35 3 -40 c2 -22 15 -141 29 -265z"/>
<path d="M21712 6348 l3 -1013 240 -3 c521 -6 709 41 890 223 181 183 265 432
265 787 0 359 -90 602 -296 798 -96 91 -203 150 -342 187 -93 25 -110 27 -430
31 l-332 4 2 -1014z m643 483 c125 -58 195 -243 195 -510 -1 -210 -43 -354
-125 -430 -39 -36 -69 -50 -137 -65 l-28 -6 0 515 0 515 28 0 c15 0 45 -9 67
-19z"/>
<path d="M7820 3830 l0 -1010 266 0 266 0 -5 398 c-4 329 -8 423 -25 547 -12
82 -20 150 -18 152 1 1 13 -30 25 -70 24 -73 135 -365 302 -789 l93 -238 268
0 268 0 0 1010 0 1010 -272 0 -271 0 6 -332 c6 -290 23 -562 52 -798 3 -26
-28 53 -73 185 -43 127 -140 391 -216 588 l-139 357 -263 0 -264 0 0 -1010z"/>
<path d="M9915 4828 c-3 -7 -110 -454 -240 -993 -129 -539 -238 -988 -241
-997 -5 -17 13 -18 279 -18 l285 0 5 23 c3 12 13 68 23 125 l17 102 184 0
c101 0 183 -3 183 -7 1 -23 38 -235 42 -239 3 -2 131 -3 285 -2 l279 3 -202
955 c-111 525 -207 979 -214 1008 l-11 52 -335 0 c-259 0 -336 -3 -339 -12z
m361 -813 c14 -126 34 -287 44 -357 11 -70 20 -134 20 -142 0 -14 -17 -16
-110 -16 -60 0 -110 2 -110 5 0 3 20 125 45 272 24 148 51 325 60 395 19 156
17 150 22 108 2 -19 15 -138 29 -265z"/>
<path d="M11867 4830 c-490 -88 -772 -527 -727 -1130 23 -296 114 -508 288
-671 96 -89 164 -131 279 -172 84 -30 95 -31 243 -32 133 0 167 3 237 23 45
13 88 29 96 35 12 9 18 69 30 277 8 146 14 266 12 268 -2 2 -24 -13 -51 -33
-65 -50 -110 -71 -176 -84 -159 -29 -294 55 -357 223 -51 137 -55 403 -8 550
57 177 162 265 317 266 52 0 77 -6 125 -30 33 -16 75 -41 93 -56 l32 -27 0
281 0 280 -67 17 c-77 20 -289 29 -366 15z"/>
<path d="M12550 3830 l0 -1010 275 0 275 0 0 1010 0 1010 -275 0 -275 0 0
-1010z"/>
<path d="M13960 4824 c-139 -29 -300 -133 -398 -257 -152 -190 -216 -407 -216
-732 1 -264 37 -434 131 -618 83 -161 245 -304 409 -362 104 -36 303 -47 404
-21 297 76 511 347 576 732 23 135 23 395 -1 529 -82 472 -357 747 -744 744
-53 0 -125 -7 -161 -15z m251 -514 c69 -73 99 -218 99 -484 0 -357 -74 -530
-219 -517 -59 6 -115 82 -145 197 -46 179 -41 519 10 672 22 64 71 140 103
157 14 8 46 14 70 15 39 0 49 -5 82 -40z"/>
<path d="M15130 3830 l0 -1010 266 0 266 0 -5 383 c-4 309 -9 412 -26 537 -11
85 -21 160 -21 165 1 6 29 -69 64 -165 47 -129 285 -740 353 -907 4 -10 67
-13 269 -13 l264 0 0 1010 0 1010 -265 0 -265 0 0 -267 c0 -148 5 -331 10
-408 11 -146 36 -415 45 -475 3 -19 -30 69 -73 195 -43 127 -140 393 -217 592
l-140 363 -262 0 -263 0 0 -1010z"/>
<path d="M16985 3848 c-131 -546 -240 -1001 -243 -1010 -4 -17 14 -18 280 -18
l285 0 17 103 c10 56 20 112 23 125 5 22 7 22 188 22 l182 0 19 -125 18 -125
283 0 c156 0 283 3 283 8 0 4 -95 458 -212 1010 l-212 1002 -336 0 -336 0
-239 -992z m575 390 c0 -53 44 -429 70 -600 11 -70 20 -129 20 -132 0 -3 -49
-6 -110 -6 -90 0 -110 3 -110 15 0 8 18 119 39 247 22 128 48 297 57 376 18
138 34 186 34 100z"/>
<path d="M18490 3830 l0 -1010 480 0 480 0 0 240 0 240 -205 0 -205 0 0 770 0
770 -275 0 -275 0 0 -1010z"/>
<path d="M20450 3830 l0 -1012 363 4 c360 4 363 4 450 31 147 45 221 89 317
186 97 98 139 164 188 294 89 238 106 580 42 833 -47 183 -120 313 -245 440
-76 76 -105 97 -185 137 -168 82 -214 90 -597 94 l-333 5 0 -1012z m674 463
c118 -83 183 -331 157 -598 -13 -133 -29 -192 -73 -265 -38 -62 -103 -109
-167 -117 l-41 -6 0 513 0 513 42 -6 c23 -3 60 -18 82 -34z"/>
<path d="M22090 3830 l0 -1010 510 0 510 0 0 240 0 240 -235 0 -235 0 0 155 0
155 210 0 210 0 0 245 0 245 -210 0 -210 0 0 125 0 125 235 0 235 0 0 245 0
245 -510 0 -510 0 0 -1010z"/>
<path d="M20814 2715 c-65 -157 -114 -279 -114 -286 0 -5 56 -9 124 -9 l124 0
101 161 c56 88 101 162 101 165 0 2 -72 4 -161 4 l-160 0 -15 -35z"/>
<path d="M7820 1310 l0 -1010 275 0 275 0 0 1010 0 1010 -275 0 -275 0 0
-1010z"/>
<path d="M8880 1310 l0 -1010 266 0 266 0 -5 403 c-4 385 -7 430 -42 667 -3
19 20 -32 50 -115 30 -82 126 -331 212 -552 l158 -403 268 0 267 0 0 1010 0
1010 -265 0 -265 0 0 -323 c0 -303 9 -468 45 -802 4 -35 -16 16 -68 170 -58
172 -195 537 -354 943 -4 9 -67 12 -269 12 l-264 0 0 -1010z"/>
<path d="M11421 2309 c-208 -41 -377 -168 -489 -369 -43 -77 -98 -247 -118
-365 -23 -138 -23 -415 0 -550 68 -391 264 -632 573 -706 74 -18 110 -20 223
-17 117 4 146 9 220 34 253 88 394 285 455 635 16 89 35 328 35 437 l0 62
-385 0 -385 0 0 -215 0 -215 100 0 100 0 0 -28 c0 -47 -29 -129 -56 -162 -37
-43 -75 -60 -135 -60 -89 0 -141 51 -176 173 -21 73 -29 408 -13 535 21 171
69 280 139 317 47 24 114 20 149 -10 33 -27 72 -99 72 -131 1 -49 8 -48 274
50 141 51 260 96 262 99 7 7 -52 121 -96 187 -55 81 -174 189 -256 232 -100
53 -214 78 -344 77 -58 -1 -125 -5 -149 -10z"/>
<path d="M12780 1310 l0 -1010 510 0 510 0 -2 243 -3 242 -232 3 -233 2 0 150
0 150 210 0 210 0 0 245 0 245 -210 0 -210 0 0 125 0 125 233 2 232 3 3 243 2
242 -510 0 -510 0 0 -1010z"/>
<path d="M14260 1310 l0 -1010 266 0 266 0 -5 368 c-4 229 -11 412 -21 487
-31 251 -32 245 23 95 28 -74 122 -317 209 -540 l159 -405 266 -3 267 -2 0
1010 0 1010 -266 0 -266 0 5 -367 c4 -277 10 -416 26 -563 11 -107 21 -204 21
-215 0 -11 -36 86 -79 215 -44 129 -140 390 -213 580 l-134 345 -262 3 -262 2
0 -1010z"/>
<path d="M16190 1310 l0 -1010 280 0 280 0 0 1010 0 1010 -280 0 -280 0 0
-1010z"/>
<path d="M17260 1310 l0 -1010 510 0 510 0 -2 243 -3 242 -232 3 -233 2 0 150
0 150 210 0 210 0 0 245 0 245 -210 0 -210 0 0 125 0 125 233 2 232 3 3 243 2
242 -510 0 -510 0 0 -1010z"/>
<path d="M18740 1311 l0 -1011 270 0 270 0 1 408 0 407 38 -105 c21 -58 89
-241 151 -407 l114 -303 297 0 298 0 -88 183 c-49 100 -139 285 -200 411 -61
126 -111 232 -111 236 0 4 26 23 58 43 167 103 246 258 245 482 -1 332 -170
555 -483 636 -79 21 -113 23 -472 26 l-388 4 0 -1010z m662 569 c21 -6 51 -22
68 -37 51 -42 64 -78 65 -173 0 -76 -3 -91 -30 -139 -39 -71 -99 -111 -167
-111 l-48 0 0 235 0 235 38 0 c20 0 54 -5 74 -10z"/>
<path d="M20590 1310 l0 -1010 275 0 275 0 0 1010 0 1010 -275 0 -275 0 0
-1010z"/>
<path d="M22009 2318 c0 -2 -110 -455 -243 -1008 l-243 -1005 280 -3 c185 -1
283 1 287 8 4 6 14 62 24 125 l18 115 183 0 183 0 6 -28 c3 -15 10 -58 16 -97
6 -38 13 -82 16 -98 l6 -27 284 0 c267 0 285 1 280 18 -3 9 -98 456 -211 992
-113 536 -208 983 -211 993 -5 16 -30 17 -340 17 -184 0 -334 -1 -335 -2z
m396 -1130 c14 -97 25 -184 25 -193 0 -13 -17 -15 -111 -15 l-111 0 6 32 c17
87 96 586 107 678 l13 105 22 -215 c13 -118 35 -295 49 -392z"/>
</g>
</svg>
