<?xml version="1.0" standalone="no"?>
<!DOCTYPE svg PUBLIC "-//W3C//DTD SVG 20010904//EN"
 "http://www.w3.org/TR/2001/REC-SVG-20010904/DTD/svg10.dtd">
<svg version="1.0" xmlns="http://www.w3.org/2000/svg"
 width="819.000000pt" height="340.000000pt" viewBox="0 0 819.000000 340.000000"
 preserveAspectRatio="xMidYMid meet">

<g transform="translate(0.000000,340.000000) scale(0.100000,-0.100000)"
fill="#000000" stroke="none">
<path d="M10 1965 l0 -1425 410 0 410 0 0 575 0 575 440 0 440 0 0 275 0 275
-440 0 -440 0 0 300 0 300 640 0 640 0 0 275 0 275 -1050 0 -1050 0 0 -1425z"/>
<path d="M2380 1965 l0 -1425 410 0 410 0 0 1425 0 1425 -410 0 -410 0 0
-1425z"/>
<path d="M3610 1965 l0 -1425 1050 0 1050 0 0 280 0 280 -650 0 -650 0 0 300
0 300 450 0 450 0 0 275 0 275 -450 0 -450 0 0 295 0 295 650 0 650 0 0 275 0
275 -1050 0 -1050 0 0 -1425z"/>
<path d="M6090 1965 l0 -1425 1050 0 1050 0 0 280 0 280 -650 0 -650 0 0 300
0 300 450 0 450 0 0 275 0 275 -450 0 -450 0 0 295 0 295 650 0 650 0 0 275 0
275 -1050 0 -1050 0 0 -1425z"/>
<path d="M7836 404 c-9 -23 -8 -24 12 -24 9 0 23 9 30 20 11 18 10 20 -12 20
-13 0 -27 -7 -30 -16z"/>
<path d="M90 267 c0 -112 8 -127 72 -134 40 -5 50 -2 72 20 24 24 26 33 26
117 0 83 -1 90 -20 90 -19 0 -20 -7 -20 -90 0 -80 -2 -90 -20 -100 -28 -15
-59 -3 -71 27 -5 13 -9 56 -9 94 0 55 -3 69 -15 69 -12 0 -15 -17 -15 -93z"/>
<path d="M370 245 c0 -94 3 -115 15 -115 11 0 15 18 17 78 l3 77 49 -77 c32
-51 56 -78 68 -78 16 0 18 10 18 115 0 107 -1 115 -20 115 -17 0 -19 -8 -22
-72 l-3 -73 -44 73 c-29 48 -49 72 -62 72 -18 0 -19 -9 -19 -115z"/>
<path d="M650 244 c0 -105 2 -115 18 -112 15 3 17 18 20 116 3 107 2 112 -18
112 -19 0 -20 -6 -20 -116z"/>
<path d="M800 249 c22 -61 40 -113 40 -115 0 -2 9 -4 20 -4 23 0 30 13 69 117
16 43 32 86 36 96 6 15 4 18 -15 15 -18 -2 -28 -18 -52 -83 -16 -44 -31 -81
-33 -83 -2 -2 -16 35 -31 82 -24 74 -31 86 -51 86 -22 0 -22 -1 17 -111z"/>
<path d="M1050 245 l0 -115 80 0 c63 0 80 3 80 15 0 10 -16 15 -62 17 l-63 3
0 35 0 35 58 3 c42 2 57 7 57 17 0 12 -14 15 -61 15 -60 0 -60 0 -57 28 3 26
6 27 66 30 46 2 62 7 62 17 0 12 -17 15 -80 15 l-80 0 0 -115z"/>
<path d="M1320 245 c0 -96 3 -115 15 -115 11 0 15 12 15 50 0 46 2 50 23 50
24 0 50 -23 80 -72 10 -16 26 -28 37 -28 26 0 25 8 -8 60 l-27 44 23 23 c18
18 22 30 17 51 -10 41 -32 52 -107 52 l-68 0 0 -115z m124 70 c30 -30 -8 -61
-65 -53 -24 3 -35 27 -25 54 7 19 70 18 90 -1z"/>
<path d="M1600 340 c-40 -40 -19 -84 50 -104 52 -15 70 -37 51 -60 -19 -23
-49 -20 -75 9 -27 29 -46 32 -46 8 0 -37 38 -63 92 -63 48 0 78 24 78 63 0 45
-10 56 -65 73 -54 16 -70 31 -53 51 16 20 56 16 70 -7 13 -20 48 -28 48 -11 0
4 -9 20 -21 35 -27 34 -98 37 -129 6z"/>
<path d="M1860 244 c0 -105 2 -115 18 -112 15 3 17 18 20 116 3 107 2 112 -18
112 -19 0 -20 -6 -20 -116z"/>
<path d="M2000 244 l0 -116 65 4 c83 5 106 25 113 97 9 96 -24 131 -123 131
l-55 0 0 -116z m120 66 c48 -48 7 -156 -58 -148 -26 3 -27 5 -30 72 -2 38 -1
75 2 83 8 20 63 16 86 -7z"/>
<path d="M2325 348 c-55 -152 -75 -210 -75 -214 0 -3 10 -4 22 -2 15 2 25 13
32 36 8 30 12 32 51 32 39 0 43 -2 51 -32 7 -23 17 -34 32 -36 12 -2 22 0 22
5 0 4 -19 56 -42 115 -37 93 -46 108 -66 108 -12 0 -25 -6 -27 -12z m49 -95
c6 -20 4 -23 -18 -23 -29 0 -31 6 -15 47 11 30 19 24 33 -24z"/>
<path d="M2540 244 l0 -116 65 4 c83 5 106 25 113 97 9 96 -24 131 -123 131
l-55 0 0 -116z m120 66 c48 -48 7 -156 -58 -148 -26 3 -27 5 -30 72 -2 38 -1
75 2 83 8 20 63 16 86 -7z"/>
<path d="M2990 245 c0 -94 3 -115 15 -115 11 0 15 18 17 78 l3 77 49 -77 c32
-51 56 -78 68 -78 16 0 18 10 18 115 0 107 -1 115 -20 115 -17 0 -19 -8 -22
-72 l-3 -73 -44 73 c-29 48 -49 72 -62 72 -18 0 -19 -9 -19 -115z"/>
<path d="M3315 348 c-55 -152 -75 -210 -75 -214 0 -3 10 -4 22 -2 15 2 25 13
32 36 8 30 12 32 51 32 39 0 43 -2 51 -32 7 -23 17 -34 32 -36 12 -2 22 0 22
5 0 4 -19 56 -42 115 -37 93 -46 108 -66 108 -12 0 -25 -6 -27 -12z m49 -95
c6 -20 4 -23 -18 -23 -29 0 -31 6 -15 47 11 30 19 24 33 -24z"/>
<path d="M3565 348 c-35 -20 -44 -41 -45 -101 0 -52 4 -62 29 -88 23 -22 39
-29 69 -29 43 0 86 27 95 59 8 33 -28 33 -52 0 -26 -35 -50 -37 -79 -6 -45 47
-19 147 38 147 11 0 29 -9 40 -20 23 -23 50 -26 50 -7 0 8 -10 23 -23 35 -26
25 -88 29 -122 10z"/>
<path d="M3810 244 c0 -105 2 -115 18 -112 15 3 17 18 20 116 3 107 2 112 -18
112 -19 0 -20 -6 -20 -116z"/>
<path d="M3969 331 c-25 -25 -29 -37 -29 -85 0 -73 26 -106 91 -113 41 -5 50
-2 79 24 29 26 34 36 34 80 2 84 -33 123 -110 123 -26 0 -44 -8 -65 -29z m101
-11 c31 -16 44 -72 26 -113 -31 -74 -108 -50 -114 36 -5 68 37 104 88 77z"/>
<path d="M4250 245 c0 -94 3 -115 15 -115 11 0 15 18 17 78 l3 77 49 -77 c32
-51 56 -78 68 -78 16 0 18 10 18 115 0 107 -1 115 -20 115 -17 0 -19 -8 -22
-72 l-3 -73 -44 73 c-29 48 -49 72 -62 72 -18 0 -19 -9 -19 -115z"/>
<path d="M4575 348 c-55 -152 -75 -210 -75 -214 0 -3 10 -4 22 -2 15 2 25 13
32 36 8 30 12 32 51 32 39 0 43 -2 51 -32 7 -23 17 -34 32 -36 12 -2 22 0 22
5 0 4 -19 56 -42 115 -37 93 -46 108 -66 108 -12 0 -25 -6 -27 -12z m49 -95
c6 -20 4 -23 -18 -23 -29 0 -31 6 -15 47 11 30 19 24 33 -24z"/>
<path d="M4790 245 l0 -116 67 3 c84 4 99 25 21 30 l-53 3 -3 98 c-2 77 -6 97
-17 97 -12 0 -15 -21 -15 -115z"/>
<path d="M5180 244 l0 -116 65 4 c83 5 106 25 113 97 9 96 -24 131 -123 131
l-55 0 0 -116z m120 66 c48 -48 7 -156 -58 -148 -26 3 -27 5 -30 72 -2 38 -1
75 2 83 8 20 63 16 86 -7z"/>
<path d="M5460 245 l0 -115 80 0 c63 0 80 3 80 15 0 10 -16 15 -62 17 l-63 3
0 35 0 35 58 3 c42 2 57 7 57 17 0 12 -14 15 -61 15 -60 0 -60 0 -57 28 3 26
6 27 66 30 46 2 62 7 62 17 0 12 -17 15 -80 15 l-80 0 0 -115z"/>
<path d="M5890 244 c0 -105 2 -115 18 -112 15 3 17 18 20 116 3 107 2 112 -18
112 -19 0 -20 -6 -20 -116z"/>
<path d="M6030 245 c0 -94 3 -115 15 -115 11 0 15 18 17 78 l3 77 49 -77 c32
-51 56 -78 68 -78 16 0 18 10 18 115 0 107 -1 115 -20 115 -17 0 -19 -8 -22
-72 l-3 -73 -44 73 c-29 48 -49 72 -62 72 -18 0 -19 -9 -19 -115z"/>
<path d="M6329 331 c-25 -25 -29 -37 -29 -85 0 -43 5 -61 23 -81 29 -35 99
-45 145 -21 29 15 32 21 32 61 l0 45 -50 0 c-38 0 -50 -4 -50 -15 0 -10 11
-15 35 -15 41 0 47 -20 13 -44 -30 -21 -50 -20 -82 5 -21 16 -26 29 -26 63 0
75 67 112 113 63 22 -24 47 -26 47 -3 0 29 -46 56 -94 56 -39 0 -53 -5 -77
-29z"/>
<path d="M6610 245 l0 -115 80 0 c63 0 80 3 80 15 0 10 -16 15 -62 17 l-63 3
0 35 0 35 58 3 c42 2 57 7 57 17 0 12 -14 15 -61 15 -60 0 -60 0 -57 28 3 26
6 27 66 30 46 2 62 7 62 17 0 12 -17 15 -80 15 l-80 0 0 -115z"/>
<path d="M6870 245 c0 -94 3 -115 15 -115 11 0 15 18 17 78 l3 77 49 -77 c32
-51 56 -78 68 -78 16 0 18 10 18 115 0 107 -1 115 -20 115 -17 0 -19 -8 -22
-72 l-3 -73 -44 73 c-29 48 -49 72 -62 72 -18 0 -19 -9 -19 -115z"/>
<path d="M7150 244 c0 -105 2 -115 18 -112 15 3 17 18 20 116 3 107 2 112 -18
112 -19 0 -20 -6 -20 -116z"/>
<path d="M7290 245 l0 -115 80 0 c63 0 80 3 80 15 0 10 -16 15 -62 17 l-63 3
0 35 0 35 58 3 c42 2 57 7 57 17 0 12 -14 15 -61 15 -60 0 -60 0 -57 28 3 26
6 27 66 30 46 2 62 7 62 17 0 12 -17 15 -80 15 l-80 0 0 -115z"/>
<path d="M7560 245 c0 -96 3 -115 15 -115 11 0 15 12 15 50 0 46 2 50 23 50
24 0 50 -23 80 -72 10 -16 26 -28 37 -28 26 0 25 8 -8 60 l-27 44 23 23 c18
18 22 30 17 51 -10 41 -32 52 -107 52 l-68 0 0 -115z m124 70 c30 -30 -8 -61
-65 -53 -24 3 -35 27 -25 54 7 19 70 18 90 -1z"/>
<path d="M7830 244 c0 -105 2 -115 18 -112 15 3 17 18 20 116 3 107 2 112 -18
112 -19 0 -20 -6 -20 -116z"/>
<path d="M8025 348 c-55 -152 -75 -210 -75 -214 0 -3 10 -4 22 -2 15 2 25 13
32 36 8 30 12 32 51 32 39 0 43 -2 51 -32 7 -23 17 -34 32 -36 12 -2 22 0 22
5 0 4 -19 56 -42 115 -37 93 -46 108 -66 108 -12 0 -25 -6 -27 -12z m49 -95
c6 -20 4 -23 -18 -23 -29 0 -31 6 -15 47 11 30 19 24 33 -24z"/>
<path d="M10 45 c0 -13 461 -15 4085 -15 3624 0 4085 2 4085 15 0 13 -461 15
-4085 15 -3624 0 -4085 -2 -4085 -15z"/>
</g>
</svg>
